<?xml version="1.0" encoding="UTF-8"?>
<!DOCTYPE svg PUBLIC "-//W3C//DTD SVG 1.1//EN" "http://www.w3.org/Graphics/SVG/1.1/DTD/svg11.dtd">
<svg xmlns="http://www.w3.org/2000/svg" version="1.1" width="512px" height="512px" style="shape-rendering:geometricPrecision; text-rendering:geometricPrecision; image-rendering:optimizeQuality; fill-rule:evenodd; clip-rule:evenodd" xmlns:xlink="http://www.w3.org/1999/xlink">
<g><path style="opacity:0.987" fill="#f64a4b" d="M 233.5,-0.5 C 236.5,-0.5 239.5,-0.5 242.5,-0.5C 211.687,4.93688 184.354,17.7702 160.5,38C 113.257,80.9667 84.0899,134.133 73,197.5C 65.758,237.955 72.4246,275.955 93,311.5C 103.705,328.904 115.872,345.238 129.5,360.5C 95.2713,366.252 70.6046,384.585 55.5,415.5C 23.0477,375.24 4.381,329.24 -0.5,277.5C -0.5,262.833 -0.5,248.167 -0.5,233.5C 11.9821,133.195 63.9821,61.6947 155.5,19C 180.687,8.70332 206.687,2.20332 233.5,-0.5 Z"/></g>
<g><path style="opacity:0.987" fill="#f64b4b" d="M 267.5,-0.5 C 270.833,-0.5 274.167,-0.5 277.5,-0.5C 377.805,11.9821 449.305,63.9821 492,155.5C 502.297,180.687 508.797,206.687 511.5,233.5C 511.5,248.167 511.5,262.833 511.5,277.5C 506.619,329.24 487.952,375.24 455.5,415.5C 440.103,384.472 415.103,366.472 380.5,361.5C 401.587,339.228 418.087,313.895 430,285.5C 440.812,257.274 443.479,228.274 438,198.5C 426.117,128.516 392.617,71.683 337.5,28C 317.495,14.1676 295.495,5.00095 271.5,0.5C 269.901,0.767809 268.568,0.434475 267.5,-0.5 Z"/></g>
<g><path style="opacity:1" fill="#2e3b43" d="M 242.5,-0.5 C 250.833,-0.5 259.167,-0.5 267.5,-0.5C 268.568,0.434475 269.901,0.767809 271.5,0.5C 233.316,12.026 201.149,33.026 175,63.5C 171.38,68.7886 167.38,73.7886 163,78.5C 161.441,80.2166 160.608,82.2166 160.5,84.5C 130.8,112.59 115.8,147.256 115.5,188.5C 104.439,235.212 111.939,278.878 138,319.5C 169.087,366.921 209.92,403.421 260.5,429C 264.613,432.509 265.446,436.676 263,441.5C 255.372,447.46 248.038,453.793 241,460.5C 228.538,474.426 220.038,490.426 215.5,508.5C 149.935,498.067 96.6019,467.067 55.5,415.5C 70.6046,384.585 95.2713,366.252 129.5,360.5C 115.872,345.238 103.705,328.904 93,311.5C 72.4246,275.955 65.758,237.955 73,197.5C 84.0899,134.133 113.257,80.9667 160.5,38C 184.354,17.7702 211.687,4.93688 242.5,-0.5 Z"/></g>
<g><path style="opacity:1" fill="#3e4852" d="M 271.5,0.5 C 295.495,5.00095 317.495,14.1676 337.5,28C 392.617,71.683 426.117,128.516 438,198.5C 443.479,228.274 440.812,257.274 430,285.5C 418.087,313.895 401.587,339.228 380.5,361.5C 415.103,366.472 440.103,384.472 455.5,415.5C 409.659,472.094 350.325,504.094 277.5,511.5C 262.833,511.5 248.167,511.5 233.5,511.5C 227.482,510.631 221.482,509.631 215.5,508.5C 220.038,490.426 228.538,474.426 241,460.5C 248.038,453.793 255.372,447.46 263,441.5C 265.446,436.676 264.613,432.509 260.5,429C 209.92,403.421 169.087,366.921 138,319.5C 111.939,278.878 104.439,235.212 115.5,188.5C 115.396,219.025 124.729,246.192 143.5,270C 147.06,271.237 150.727,271.737 154.5,271.5C 166.069,286.068 180.069,297.735 196.5,306.5C 196.334,312.176 196.501,317.843 197,323.5C 200.255,331.882 206.422,335.216 215.5,333.5C 220.167,333.5 224.833,333.5 229.5,333.5C 235.833,333.5 242.167,333.5 248.5,333.5C 253.167,333.5 257.833,333.5 262.5,333.5C 268.833,333.5 275.167,333.5 281.5,333.5C 286.167,333.5 290.833,333.5 295.5,333.5C 304.578,335.216 310.745,331.882 314,323.5C 314.499,317.509 314.666,311.509 314.5,305.5C 319.048,303.893 323.381,301.726 327.5,299C 338.648,291.351 348.314,282.184 356.5,271.5C 362.291,272.511 367.124,270.844 371,266.5C 396.673,226.451 402.006,183.784 387,138.5C 365.181,86.5178 326.347,56.5178 270.5,48.5C 228.562,44.257 191.895,56.257 160.5,84.5C 160.608,82.2166 161.441,80.2166 163,78.5C 167.38,73.7886 171.38,68.7886 175,63.5C 201.149,33.026 233.316,12.026 271.5,0.5 Z"/></g>
<g><path style="opacity:1" fill="#e1e5e6" d="M 270.5,48.5 C 215.754,56.4616 177.254,85.7949 155,136.5C 138.823,181.771 143.49,224.771 169,265.5C 170.543,267.378 172.376,268.878 174.5,270C 178.356,270.177 182.023,270.677 185.5,271.5C 175.167,271.5 164.833,271.5 154.5,271.5C 150.727,271.737 147.06,271.237 143.5,270C 124.729,246.192 115.396,219.025 115.5,188.5C 115.8,147.256 130.8,112.59 160.5,84.5C 191.895,56.257 228.562,44.257 270.5,48.5 Z"/></g>
<g><path style="opacity:1" fill="#fafbf6" d="M 270.5,48.5 C 326.347,56.5178 365.181,86.5178 387,138.5C 402.006,183.784 396.673,226.451 371,266.5C 367.124,270.844 362.291,272.511 356.5,271.5C 344.829,271.333 333.162,271.5 321.5,272C 318.763,273.614 316.597,275.781 315,278.5C 314.5,287.494 314.334,296.494 314.5,305.5C 314.666,311.509 314.499,317.509 314,323.5C 310.745,331.882 304.578,335.216 295.5,333.5C 295.667,314.164 295.5,294.83 295,275.5C 292.019,271.304 288.186,270.471 283.5,273C 282.874,273.75 282.374,274.584 282,275.5C 281.5,294.83 281.333,314.164 281.5,333.5C 275.167,333.5 268.833,333.5 262.5,333.5C 262.667,314.164 262.5,294.83 262,275.5C 259.019,271.304 255.186,270.471 250.5,273C 249.874,273.75 249.374,274.584 249,275.5C 248.5,294.83 248.333,314.164 248.5,333.5C 242.167,333.5 235.833,333.5 229.5,333.5C 229.667,314.164 229.5,294.83 229,275.5C 226.019,271.304 222.186,270.471 217.5,273C 216.874,273.75 216.374,274.584 216,275.5C 215.5,294.83 215.333,314.164 215.5,333.5C 206.422,335.216 200.255,331.882 197,323.5C 196.501,317.843 196.334,312.176 196.5,306.5C 196.666,297.161 196.5,287.827 196,278.5C 193.442,274.779 189.942,272.445 185.5,271.5C 182.023,270.677 178.356,270.177 174.5,270C 172.376,268.878 170.543,267.378 169,265.5C 143.49,224.771 138.823,181.771 155,136.5C 177.254,85.7949 215.754,56.4616 270.5,48.5 Z"/></g>
<g><path style="opacity:1" fill="#3f4953" d="M 192.5,155.5 C 218.463,155.943 232.797,168.943 235.5,194.5C 233.484,218.682 220.317,231.682 196,233.5C 172.533,230.701 160.033,217.534 158.5,194C 160.483,172.845 171.816,160.012 192.5,155.5 Z"/></g>
<g><path style="opacity:1" fill="#3f4953" d="M 309.5,155.5 C 335.176,155.962 349.51,168.796 352.5,194C 350.721,218.446 337.554,231.613 313,233.5C 289.779,230.78 277.279,217.78 275.5,194.5C 277.336,173.132 288.669,160.132 309.5,155.5 Z"/></g>
<g><path style="opacity:1" fill="#2e3b43" d="M 154.5,271.5 C 164.833,271.5 175.167,271.5 185.5,271.5C 189.942,272.445 193.442,274.779 196,278.5C 196.5,287.827 196.666,297.161 196.5,306.5C 180.069,297.735 166.069,286.068 154.5,271.5 Z"/></g>
<g><path style="opacity:1" fill="#c1ccd0" d="M 229.5,333.5 C 224.833,333.5 220.167,333.5 215.5,333.5C 215.333,314.164 215.5,294.83 216,275.5C 216.374,274.584 216.874,273.75 217.5,273C 222.186,270.471 226.019,271.304 229,275.5C 229.5,294.83 229.667,314.164 229.5,333.5 Z"/></g>
<g><path style="opacity:1" fill="#c1ccd0" d="M 262.5,333.5 C 257.833,333.5 253.167,333.5 248.5,333.5C 248.333,314.164 248.5,294.83 249,275.5C 249.374,274.584 249.874,273.75 250.5,273C 255.186,270.471 259.019,271.304 262,275.5C 262.5,294.83 262.667,314.164 262.5,333.5 Z"/></g>
<g><path style="opacity:1" fill="#c1ccd0" d="M 295.5,333.5 C 290.833,333.5 286.167,333.5 281.5,333.5C 281.333,314.164 281.5,294.83 282,275.5C 282.374,274.584 282.874,273.75 283.5,273C 288.186,270.471 292.019,271.304 295,275.5C 295.5,294.83 295.667,314.164 295.5,333.5 Z"/></g>
<g><path style="opacity:1" fill="#2e3b43" d="M 356.5,271.5 C 348.314,282.184 338.648,291.351 327.5,299C 323.381,301.726 319.048,303.893 314.5,305.5C 314.334,296.494 314.5,287.494 315,278.5C 316.597,275.781 318.763,273.614 321.5,272C 333.162,271.5 344.829,271.333 356.5,271.5 Z"/></g>
</svg>
